<mxfile host="app.diagrams.net" agent="Mozilla/5.0 (Windows NT 10.0; Win64; x64) AppleWebKit/537.36 (KHTML, like Gecko) Chrome/130.0.0.0 Safari/537.36" version="24.8.4">
  <diagram name="Page-1" id="58cdce13-f638-feb5-8d6f-7d28b1aa9fa0">
    <mxGraphModel dx="1434" dy="772" grid="1" gridSize="10" guides="1" tooltips="1" connect="1" arrows="1" fold="1" page="1" pageScale="1" pageWidth="1100" pageHeight="850" background="none" math="0" shadow="0">
      <root>
        <mxCell id="0" />
        <mxCell id="1" parent="0" />
        <mxCell id="uiPzCpsIiIymZHV-B2h2-1" value="Red" style="rounded=1;whiteSpace=wrap;html=1;" vertex="1" parent="1">
          <mxGeometry x="495" y="120" width="120" height="60" as="geometry" />
        </mxCell>
        <mxCell id="uiPzCpsIiIymZHV-B2h2-4" value="" style="ellipse;html=1;shape=startState;fillColor=#000000;strokeColor=#ff0000;" vertex="1" parent="1">
          <mxGeometry x="540" y="30" width="30" height="30" as="geometry" />
        </mxCell>
        <mxCell id="uiPzCpsIiIymZHV-B2h2-5" value="" style="edgeStyle=orthogonalEdgeStyle;html=1;verticalAlign=bottom;endArrow=open;endSize=8;strokeColor=#ff0000;rounded=0;" edge="1" source="uiPzCpsIiIymZHV-B2h2-4" parent="1">
          <mxGeometry relative="1" as="geometry">
            <mxPoint x="555" y="120" as="targetPoint" />
          </mxGeometry>
        </mxCell>
        <mxCell id="uiPzCpsIiIymZHV-B2h2-6" value="Start" style="edgeLabel;html=1;align=center;verticalAlign=middle;resizable=0;points=[];" vertex="1" connectable="0" parent="uiPzCpsIiIymZHV-B2h2-5">
          <mxGeometry x="-0.1075" y="1" relative="1" as="geometry">
            <mxPoint as="offset" />
          </mxGeometry>
        </mxCell>
        <mxCell id="uiPzCpsIiIymZHV-B2h2-7" value="Green" style="rounded=1;whiteSpace=wrap;html=1;" vertex="1" parent="1">
          <mxGeometry x="340" y="320" width="120" height="60" as="geometry" />
        </mxCell>
        <mxCell id="uiPzCpsIiIymZHV-B2h2-8" value="Yellow" style="rounded=1;whiteSpace=wrap;html=1;" vertex="1" parent="1">
          <mxGeometry x="490" y="490" width="120" height="60" as="geometry" />
        </mxCell>
        <mxCell id="uiPzCpsIiIymZHV-B2h2-9" value="Maintenance" style="rounded=1;whiteSpace=wrap;html=1;" vertex="1" parent="1">
          <mxGeometry x="170" y="620" width="120" height="60" as="geometry" />
        </mxCell>
        <mxCell id="uiPzCpsIiIymZHV-B2h2-10" value="Flashing yellow" style="rounded=1;whiteSpace=wrap;html=1;" vertex="1" parent="1">
          <mxGeometry x="640" y="650" width="120" height="60" as="geometry" />
        </mxCell>
        <mxCell id="uiPzCpsIiIymZHV-B2h2-13" value="" style="curved=1;endArrow=classic;html=1;rounded=0;exitX=0;exitY=0.5;exitDx=0;exitDy=0;entryX=0.367;entryY=-0.05;entryDx=0;entryDy=0;entryPerimeter=0;" edge="1" parent="1" source="uiPzCpsIiIymZHV-B2h2-1" target="uiPzCpsIiIymZHV-B2h2-9">
          <mxGeometry width="50" height="50" relative="1" as="geometry">
            <mxPoint x="460" y="160" as="sourcePoint" />
            <mxPoint x="40" y="150" as="targetPoint" />
            <Array as="points">
              <mxPoint x="107.96000000000001" y="145" />
            </Array>
          </mxGeometry>
        </mxCell>
        <mxCell id="uiPzCpsIiIymZHV-B2h2-16" value="Manual override" style="edgeLabel;html=1;align=center;verticalAlign=middle;resizable=0;points=[];" vertex="1" connectable="0" parent="uiPzCpsIiIymZHV-B2h2-13">
          <mxGeometry x="0.534" y="61" relative="1" as="geometry">
            <mxPoint as="offset" />
          </mxGeometry>
        </mxCell>
        <mxCell id="uiPzCpsIiIymZHV-B2h2-14" value="" style="curved=1;endArrow=classic;html=1;rounded=0;entryX=0.942;entryY=0.017;entryDx=0;entryDy=0;entryPerimeter=0;exitX=0.1;exitY=1.083;exitDx=0;exitDy=0;exitPerimeter=0;" edge="1" parent="1" source="uiPzCpsIiIymZHV-B2h2-7" target="uiPzCpsIiIymZHV-B2h2-9">
          <mxGeometry width="50" height="50" relative="1" as="geometry">
            <mxPoint x="370" y="260" as="sourcePoint" />
            <mxPoint x="214" y="402" as="targetPoint" />
            <Array as="points" />
          </mxGeometry>
        </mxCell>
        <mxCell id="uiPzCpsIiIymZHV-B2h2-15" value="" style="curved=1;endArrow=classic;html=1;rounded=0;exitX=0.5;exitY=0;exitDx=0;exitDy=0;entryX=0;entryY=0.75;entryDx=0;entryDy=0;" edge="1" parent="1" source="uiPzCpsIiIymZHV-B2h2-9" target="uiPzCpsIiIymZHV-B2h2-1">
          <mxGeometry width="50" height="50" relative="1" as="geometry">
            <mxPoint x="650" y="385" as="sourcePoint" />
            <mxPoint x="249" y="612" as="targetPoint" />
            <Array as="points">
              <mxPoint x="180" y="240" />
            </Array>
          </mxGeometry>
        </mxCell>
        <mxCell id="uiPzCpsIiIymZHV-B2h2-17" value="resume operation" style="edgeLabel;html=1;align=center;verticalAlign=middle;resizable=0;points=[];" vertex="1" connectable="0" parent="uiPzCpsIiIymZHV-B2h2-15">
          <mxGeometry x="-0.0581" y="-34" relative="1" as="geometry">
            <mxPoint as="offset" />
          </mxGeometry>
        </mxCell>
        <mxCell id="uiPzCpsIiIymZHV-B2h2-18" value="" style="curved=1;endArrow=classic;html=1;rounded=0;entryX=0;entryY=0;entryDx=0;entryDy=0;exitX=0.9;exitY=1.05;exitDx=0;exitDy=0;exitPerimeter=0;" edge="1" parent="1" source="uiPzCpsIiIymZHV-B2h2-7" target="uiPzCpsIiIymZHV-B2h2-8">
          <mxGeometry width="50" height="50" relative="1" as="geometry">
            <mxPoint x="525" y="180" as="sourcePoint" />
            <mxPoint x="124" y="407" as="targetPoint" />
            <Array as="points" />
          </mxGeometry>
        </mxCell>
        <mxCell id="uiPzCpsIiIymZHV-B2h2-22" value="Timer Expired" style="edgeLabel;html=1;align=center;verticalAlign=middle;resizable=0;points=[];" vertex="1" connectable="0" parent="uiPzCpsIiIymZHV-B2h2-18">
          <mxGeometry x="-0.144" y="2" relative="1" as="geometry">
            <mxPoint as="offset" />
          </mxGeometry>
        </mxCell>
        <mxCell id="uiPzCpsIiIymZHV-B2h2-19" value="" style="curved=1;endArrow=classic;html=1;rounded=0;entryX=0.425;entryY=0.083;entryDx=0;entryDy=0;entryPerimeter=0;exitX=0.25;exitY=1;exitDx=0;exitDy=0;" edge="1" parent="1" source="uiPzCpsIiIymZHV-B2h2-1" target="uiPzCpsIiIymZHV-B2h2-7">
          <mxGeometry width="50" height="50" relative="1" as="geometry">
            <mxPoint x="495" y="250" as="sourcePoint" />
            <mxPoint x="358" y="281" as="targetPoint" />
            <Array as="points">
              <mxPoint x="495" y="210" />
            </Array>
          </mxGeometry>
        </mxCell>
        <mxCell id="uiPzCpsIiIymZHV-B2h2-21" value="" style="curved=1;endArrow=classic;html=1;rounded=0;exitX=0.983;exitY=0.9;exitDx=0;exitDy=0;exitPerimeter=0;entryX=0;entryY=0.5;entryDx=0;entryDy=0;" edge="1" parent="1" source="uiPzCpsIiIymZHV-B2h2-7" target="uiPzCpsIiIymZHV-B2h2-32">
          <mxGeometry width="50" height="50" relative="1" as="geometry">
            <mxPoint x="508" y="318" as="sourcePoint" />
            <mxPoint x="810" y="470" as="targetPoint" />
            <Array as="points" />
          </mxGeometry>
        </mxCell>
        <mxCell id="uiPzCpsIiIymZHV-B2h2-23" value="Pedestrian Request" style="edgeLabel;html=1;align=center;verticalAlign=middle;resizable=0;points=[];" vertex="1" connectable="0" parent="uiPzCpsIiIymZHV-B2h2-21">
          <mxGeometry x="-0.2681" y="-3" relative="1" as="geometry">
            <mxPoint as="offset" />
          </mxGeometry>
        </mxCell>
        <mxCell id="uiPzCpsIiIymZHV-B2h2-24" value="" style="curved=1;endArrow=classic;html=1;rounded=0;entryX=0.567;entryY=1.067;entryDx=0;entryDy=0;exitX=0.575;exitY=-0.05;exitDx=0;exitDy=0;exitPerimeter=0;entryPerimeter=0;" edge="1" parent="1" source="uiPzCpsIiIymZHV-B2h2-8" target="uiPzCpsIiIymZHV-B2h2-1">
          <mxGeometry width="50" height="50" relative="1" as="geometry">
            <mxPoint x="468" y="403" as="sourcePoint" />
            <mxPoint x="510" y="510" as="targetPoint" />
            <Array as="points" />
          </mxGeometry>
        </mxCell>
        <mxCell id="uiPzCpsIiIymZHV-B2h2-25" value="Timer Expired" style="edgeLabel;html=1;align=center;verticalAlign=middle;resizable=0;points=[];" vertex="1" connectable="0" parent="uiPzCpsIiIymZHV-B2h2-24">
          <mxGeometry x="0.4351" y="-1" relative="1" as="geometry">
            <mxPoint as="offset" />
          </mxGeometry>
        </mxCell>
        <mxCell id="uiPzCpsIiIymZHV-B2h2-26" value="" style="curved=1;endArrow=classic;html=1;rounded=0;entryX=1;entryY=0.5;entryDx=0;entryDy=0;exitX=0;exitY=0.75;exitDx=0;exitDy=0;" edge="1" parent="1" source="uiPzCpsIiIymZHV-B2h2-8" target="uiPzCpsIiIymZHV-B2h2-9">
          <mxGeometry width="50" height="50" relative="1" as="geometry">
            <mxPoint x="478" y="413" as="sourcePoint" />
            <mxPoint x="520" y="520" as="targetPoint" />
            <Array as="points" />
          </mxGeometry>
        </mxCell>
        <mxCell id="uiPzCpsIiIymZHV-B2h2-27" value="Manuel Override" style="edgeLabel;html=1;align=center;verticalAlign=middle;resizable=0;points=[];" vertex="1" connectable="0" parent="uiPzCpsIiIymZHV-B2h2-26">
          <mxGeometry x="0.172" y="-2" relative="1" as="geometry">
            <mxPoint as="offset" />
          </mxGeometry>
        </mxCell>
        <mxCell id="uiPzCpsIiIymZHV-B2h2-28" value="" style="curved=1;endArrow=classic;html=1;rounded=0;entryX=0;entryY=0.5;entryDx=0;entryDy=0;exitX=0.867;exitY=1.017;exitDx=0;exitDy=0;exitPerimeter=0;" edge="1" parent="1" source="uiPzCpsIiIymZHV-B2h2-8" target="uiPzCpsIiIymZHV-B2h2-10">
          <mxGeometry width="50" height="50" relative="1" as="geometry">
            <mxPoint x="500" y="545" as="sourcePoint" />
            <mxPoint x="300" y="660" as="targetPoint" />
            <Array as="points" />
          </mxGeometry>
        </mxCell>
        <mxCell id="uiPzCpsIiIymZHV-B2h2-29" value="Emergency Mode" style="edgeLabel;html=1;align=center;verticalAlign=middle;resizable=0;points=[];" vertex="1" connectable="0" parent="uiPzCpsIiIymZHV-B2h2-28">
          <mxGeometry x="0.172" y="-2" relative="1" as="geometry">
            <mxPoint as="offset" />
          </mxGeometry>
        </mxCell>
        <mxCell id="uiPzCpsIiIymZHV-B2h2-30" value="" style="curved=1;endArrow=classic;html=1;rounded=0;exitX=0.5;exitY=0;exitDx=0;exitDy=0;entryX=0.983;entryY=0.9;entryDx=0;entryDy=0;entryPerimeter=0;" edge="1" parent="1" source="uiPzCpsIiIymZHV-B2h2-10" target="uiPzCpsIiIymZHV-B2h2-1">
          <mxGeometry width="50" height="50" relative="1" as="geometry">
            <mxPoint x="690" y="620" as="sourcePoint" />
            <mxPoint x="955" y="165" as="targetPoint" />
            <Array as="points">
              <mxPoint x="680" y="250" />
            </Array>
          </mxGeometry>
        </mxCell>
        <mxCell id="uiPzCpsIiIymZHV-B2h2-31" value="End Emergency" style="edgeLabel;html=1;align=center;verticalAlign=middle;resizable=0;points=[];" vertex="1" connectable="0" parent="uiPzCpsIiIymZHV-B2h2-30">
          <mxGeometry x="-0.0581" y="-34" relative="1" as="geometry">
            <mxPoint x="-52" y="-93" as="offset" />
          </mxGeometry>
        </mxCell>
        <mxCell id="uiPzCpsIiIymZHV-B2h2-32" value="PedestrianSignal" style="swimlane;whiteSpace=wrap;html=1;" vertex="1" parent="1">
          <mxGeometry x="800" y="180" width="280" height="460" as="geometry" />
        </mxCell>
        <mxCell id="uiPzCpsIiIymZHV-B2h2-33" value="" style="ellipse;html=1;shape=startState;fillColor=#000000;strokeColor=#ff0000;" vertex="1" parent="uiPzCpsIiIymZHV-B2h2-32">
          <mxGeometry x="125" y="40" width="30" height="30" as="geometry" />
        </mxCell>
        <mxCell id="uiPzCpsIiIymZHV-B2h2-34" value="" style="edgeStyle=orthogonalEdgeStyle;html=1;verticalAlign=bottom;endArrow=open;endSize=8;strokeColor=#ff0000;rounded=0;entryX=0.5;entryY=0;entryDx=0;entryDy=0;" edge="1" source="uiPzCpsIiIymZHV-B2h2-33" parent="uiPzCpsIiIymZHV-B2h2-32" target="uiPzCpsIiIymZHV-B2h2-36">
          <mxGeometry relative="1" as="geometry">
            <mxPoint x="140" y="140" as="targetPoint" />
          </mxGeometry>
        </mxCell>
        <mxCell id="uiPzCpsIiIymZHV-B2h2-35" value="Pedestrian Request" style="edgeLabel;html=1;align=center;verticalAlign=middle;resizable=0;points=[];" vertex="1" connectable="0" parent="uiPzCpsIiIymZHV-B2h2-34">
          <mxGeometry x="-0.4569" relative="1" as="geometry">
            <mxPoint as="offset" />
          </mxGeometry>
        </mxCell>
        <mxCell id="uiPzCpsIiIymZHV-B2h2-36" value="Walk" style="rounded=1;whiteSpace=wrap;html=1;" vertex="1" parent="uiPzCpsIiIymZHV-B2h2-32">
          <mxGeometry x="80" y="140" width="120" height="30" as="geometry" />
        </mxCell>
        <mxCell id="uiPzCpsIiIymZHV-B2h2-37" value="Flashing Don&#39;t walk signal" style="rounded=1;whiteSpace=wrap;html=1;" vertex="1" parent="uiPzCpsIiIymZHV-B2h2-32">
          <mxGeometry x="80" y="240" width="120" height="45" as="geometry" />
        </mxCell>
        <mxCell id="uiPzCpsIiIymZHV-B2h2-38" value="" style="endArrow=classic;html=1;rounded=0;entryX=0.5;entryY=0;entryDx=0;entryDy=0;exitX=0.5;exitY=1;exitDx=0;exitDy=0;" edge="1" parent="uiPzCpsIiIymZHV-B2h2-32" source="uiPzCpsIiIymZHV-B2h2-36" target="uiPzCpsIiIymZHV-B2h2-37">
          <mxGeometry width="50" height="50" relative="1" as="geometry">
            <mxPoint x="50" y="230" as="sourcePoint" />
            <mxPoint x="100" y="180" as="targetPoint" />
          </mxGeometry>
        </mxCell>
        <mxCell id="uiPzCpsIiIymZHV-B2h2-41" value="Timer Expired" style="edgeLabel;html=1;align=center;verticalAlign=middle;resizable=0;points=[];" vertex="1" connectable="0" parent="uiPzCpsIiIymZHV-B2h2-38">
          <mxGeometry x="-0.3333" y="1" relative="1" as="geometry">
            <mxPoint as="offset" />
          </mxGeometry>
        </mxCell>
        <mxCell id="uiPzCpsIiIymZHV-B2h2-40" value="Don&#39;t Walk" style="rounded=1;whiteSpace=wrap;html=1;" vertex="1" parent="uiPzCpsIiIymZHV-B2h2-32">
          <mxGeometry x="80" y="340" width="120" height="40" as="geometry" />
        </mxCell>
        <mxCell id="uiPzCpsIiIymZHV-B2h2-39" value="" style="endArrow=classic;html=1;rounded=0;entryX=0.5;entryY=0;entryDx=0;entryDy=0;exitX=0.5;exitY=1;exitDx=0;exitDy=0;" edge="1" parent="uiPzCpsIiIymZHV-B2h2-32" source="uiPzCpsIiIymZHV-B2h2-37" target="uiPzCpsIiIymZHV-B2h2-40">
          <mxGeometry width="50" height="50" relative="1" as="geometry">
            <mxPoint x="139.5" y="280" as="sourcePoint" />
            <mxPoint x="139.5" y="325" as="targetPoint" />
          </mxGeometry>
        </mxCell>
        <mxCell id="uiPzCpsIiIymZHV-B2h2-42" value="Timer Expired" style="edgeLabel;html=1;align=center;verticalAlign=middle;resizable=0;points=[];" vertex="1" connectable="0" parent="uiPzCpsIiIymZHV-B2h2-39">
          <mxGeometry x="-0.4667" relative="1" as="geometry">
            <mxPoint y="11" as="offset" />
          </mxGeometry>
        </mxCell>
        <mxCell id="uiPzCpsIiIymZHV-B2h2-43" value="" style="ellipse;html=1;shape=endState;fillColor=#000000;strokeColor=#ff0000;" vertex="1" parent="uiPzCpsIiIymZHV-B2h2-32">
          <mxGeometry x="125" y="410" width="30" height="30" as="geometry" />
        </mxCell>
        <mxCell id="uiPzCpsIiIymZHV-B2h2-44" value="" style="endArrow=classic;html=1;rounded=0;entryX=0.5;entryY=0;entryDx=0;entryDy=0;exitX=0.5;exitY=1;exitDx=0;exitDy=0;" edge="1" parent="uiPzCpsIiIymZHV-B2h2-32" source="uiPzCpsIiIymZHV-B2h2-40" target="uiPzCpsIiIymZHV-B2h2-43">
          <mxGeometry width="50" height="50" relative="1" as="geometry">
            <mxPoint x="20" y="410" as="sourcePoint" />
            <mxPoint x="70" y="360" as="targetPoint" />
          </mxGeometry>
        </mxCell>
        <mxCell id="uiPzCpsIiIymZHV-B2h2-45" value="" style="endArrow=classic;html=1;rounded=0;exitX=1;exitY=0.5;exitDx=0;exitDy=0;" edge="1" parent="1" source="uiPzCpsIiIymZHV-B2h2-1">
          <mxGeometry width="50" height="50" relative="1" as="geometry">
            <mxPoint x="630" y="150" as="sourcePoint" />
            <mxPoint x="800" y="230" as="targetPoint" />
            <Array as="points" />
          </mxGeometry>
        </mxCell>
        <mxCell id="uiPzCpsIiIymZHV-B2h2-47" value="Pedestrian Request" style="edgeLabel;html=1;align=center;verticalAlign=middle;resizable=0;points=[];" vertex="1" connectable="0" parent="uiPzCpsIiIymZHV-B2h2-45">
          <mxGeometry x="-0.0619" y="1" relative="1" as="geometry">
            <mxPoint x="-1" as="offset" />
          </mxGeometry>
        </mxCell>
        <mxCell id="uiPzCpsIiIymZHV-B2h2-46" value="" style="curved=1;endArrow=classic;html=1;rounded=0;entryX=1;entryY=0.25;entryDx=0;entryDy=0;exitX=0.439;exitY=-0.009;exitDx=0;exitDy=0;exitPerimeter=0;" edge="1" parent="1" source="uiPzCpsIiIymZHV-B2h2-32" target="uiPzCpsIiIymZHV-B2h2-1">
          <mxGeometry width="50" height="50" relative="1" as="geometry">
            <mxPoint x="740" y="150" as="sourcePoint" />
            <mxPoint x="790" y="100" as="targetPoint" />
            <Array as="points">
              <mxPoint x="930" y="150" />
              <mxPoint x="820" y="110" />
            </Array>
          </mxGeometry>
        </mxCell>
        <mxCell id="uiPzCpsIiIymZHV-B2h2-48" value="Cycle Complete" style="edgeLabel;html=1;align=center;verticalAlign=middle;resizable=0;points=[];" vertex="1" connectable="0" parent="uiPzCpsIiIymZHV-B2h2-46">
          <mxGeometry x="-0.3173" y="8" relative="1" as="geometry">
            <mxPoint as="offset" />
          </mxGeometry>
        </mxCell>
      </root>
    </mxGraphModel>
  </diagram>
</mxfile>
